# xmcd
#
# Track frame offsets: 
#        150
#        16840
#        30705
#        47235
#        60711
#        81874
#        103884
#        118691
#        136305
#        151598
#        170133
#        186584
#        203722
#        224772
#        241240
#        259890
#
# Disc length: 3706 seconds
#
# Revision: 0
# Processed by: cddbd v1.5.2PL0 Copyright (c) Steve Scherf et al.
# Submitted via: ExactAudioCopy v1.1
#
DISCID=ea0e7810
DTITLE=Kim Carnes - Essential
DYEAR=2011
DGENRE=Pop
TTITLE0=Bette Davis Eyes
TTITLE1=Cry Like A Baby
TTITLE2=Don't Fall In Love With A Dreamer
TTITLE3=It Hurts So Bad
TTITLE4=Mistaken Identity
TTITLE5=Draw Of The Cards
TTITLE6=Break The Rules Tonite (Out Of School)
TTITLE7=Voyeur
TTITLE8=Thrill Of The Grill
TTITLE9=I Pretend
TTITLE10=Invitation To Dance
TTITLE11=Abadabadango
TTITLE12=Touch And Go
TTITLE13=I'd Lie To You For Your Love
TTITLE14=Chain Letter
TTITLE15=Gypsy Honeymoon
EXTD=
EXTT0=
EXTT1=
EXTT2=
EXTT3=
EXTT4=
EXTT5=
EXTT6=
EXTT7=
EXTT8=
EXTT9=
EXTT10=
EXTT11=
EXTT12=
EXTT13=
EXTT14=
EXTT15=
PLAYORDER=
